<svg width="200" height="60" viewBox="0 0 200 60" xmlns="http://www.w3.org/2000/svg">
  <!-- Background circle -->
  <circle cx="30" cy="30" r="25" fill="#54366B" opacity="0.1"/>
  
  <!-- DNA Helix -->
  <g stroke="#54366B" stroke-width="2" fill="none">
    <!-- Left strand -->
    <path d="M15 10 Q25 15, 15 20 Q25 25, 15 30 Q25 35, 15 40 Q25 45, 15 50" stroke="#54366B"/>
    <!-- Right strand -->
    <path d="M45 10 Q35 15, 45 20 Q35 25, 45 30 Q35 35, 45 40 Q35 45, 45 50" stroke="#54366B"/>
    <!-- Base pairs -->
    <line x1="15" y1="15" x2="45" y2="15" stroke="#EAE3F5" stroke-width="1"/>
    <line x1="15" y1="25" x2="45" y2="25" stroke="#EAE3F5" stroke-width="1"/>
    <line x1="15" y1="35" x2="45" y2="35" stroke="#EAE3F5" stroke-width="1"/>
    <line x1="15" y1="45" x2="45" y2="45" stroke="#EAE3F5" stroke-width="1"/>
  </g>
  
  <!-- Text -->
  <text x="70" y="25" font-family="Arial, sans-serif" font-size="16" font-weight="bold" fill="#54366B">Bioinformatics</text>
  <text x="70" y="40" font-family="Arial, sans-serif" font-size="12" fill="#363B6B">.lk</text>
</svg> 